<?xml version="1.0" standalone="no"?>
<!DOCTYPE svg PUBLIC "-//W3C//DTD SVG 20010904//EN"
 "http://www.w3.org/TR/2001/REC-SVG-20010904/DTD/svg10.dtd">
<svg version="1.0" xmlns="http://www.w3.org/2000/svg"
 width="1024.000000pt" height="1024.000000pt" viewBox="0 0 1024.000000 1024.000000"
 preserveAspectRatio="xMidYMid meet">
<metadata>
Created by potrace 1.14, written by Peter Selinger 2001-2017
</metadata>
<g transform="translate(0.000000,1024.000000) scale(0.100000,-0.100000)"
fill="#000000" stroke="none">
<path d="M4360 9631 c-47 -4 -91 -10 -97 -14 -7 -4 -45 -12 -85 -18 -97 -12
-162 -24 -223 -38 -27 -7 -70 -17 -95 -23 -25 -6 -133 -12 -240 -14 -132 -2
-216 -8 -260 -18 -85 -21 -209 -66 -290 -106 -36 -17 -93 -46 -127 -63 -34
-17 -96 -61 -138 -99 -42 -37 -85 -68 -96 -68 -10 0 -35 -15 -55 -32 -33 -31
-34 -35 -23 -66 7 -20 20 -34 35 -38 34 -9 30 -20 -16 -46 -38 -22 -51 -38
-30 -38 6 0 10 -7 10 -15 0 -9 -9 -15 -23 -15 -19 0 -29 -11 -48 -50 -22 -47
-26 -50 -54 -46 -28 4 -32 0 -62 -60 -19 -36 -28 -66 -23 -69 14 -9 -6 -43
-47 -83 -34 -33 -43 -34 -85 -17 -15 6 -17 -1 -20 -52 -3 -51 -6 -58 -25 -61
-23 -3 -38 -28 -23 -37 18 -11 11 -47 -10 -52 -16 -4 -20 -14 -20 -44 0 -21
-5 -41 -10 -44 -6 -4 -8 -15 -5 -25 3 -11 -2 -31 -11 -45 -13 -20 -14 -29 -5
-38 18 -18 13 -36 -9 -30 -20 5 -60 48 -60 63 0 4 11 23 24 43 21 31 23 39 13
62 -9 19 -18 25 -37 23 -28 -3 -42 -38 -16 -38 9 0 16 -8 16 -17 0 -13 -3 -14
-12 -5 -7 7 -16 12 -20 12 -11 0 -10 -47 1 -54 5 -3 12 -26 16 -52 3 -25 13
-64 22 -87 8 -23 15 -51 15 -61 -1 -11 12 -35 28 -53 35 -40 38 -59 9 -66 -25
-7 -15 -32 21 -50 12 -7 31 -28 41 -47 16 -29 19 -31 19 -12 0 13 6 22 15 22
8 0 15 -4 15 -10 0 -5 11 -12 25 -16 23 -6 30 -19 26 -51 -1 -7 7 -21 17 -31
11 -11 21 -25 24 -32 3 -10 11 -11 35 -3 38 14 66 0 34 -16 -25 -14 -19 -31
10 -31 10 0 19 -3 19 -6 0 -3 -18 -44 -41 -91 -39 -81 -40 -88 -29 -127 6 -22
17 -81 24 -131 7 -49 18 -103 26 -120 25 -59 28 -71 34 -119 4 -30 16 -62 32
-83 14 -18 33 -54 41 -80 9 -26 22 -58 30 -72 7 -15 13 -31 13 -37 0 -7 7 -14
14 -17 26 -10 29 -69 7 -133 -18 -56 -20 -86 -20 -439 0 -243 -4 -382 -11
-389 -5 -5 -10 -33 -10 -60 0 -48 14 -55 22 -11 2 11 8 20 13 20 6 1 26 11 45
23 30 20 43 22 90 16 30 -3 63 -10 72 -15 61 -33 296 -51 378 -30 71 19 114
34 130 46 8 6 27 16 43 23 17 7 27 19 27 32 0 24 -17 26 -46 6 -55 -39 -347
-67 -377 -37 -8 8 -1 11 29 11 21 0 57 5 79 11 22 6 74 16 116 24 42 7 90 20
106 29 37 19 113 46 131 46 6 0 12 -7 12 -15 0 -8 -9 -15 -20 -15 -11 0 -20
-6 -20 -14 0 -17 35 -31 51 -20 8 4 9 -3 4 -25 -8 -38 17 -75 46 -66 12 4 20
-1 24 -15 5 -16 12 -20 28 -16 12 3 24 6 27 6 4 0 12 16 19 35 6 19 26 44 42
56 20 14 28 27 24 38 -3 9 2 26 10 37 8 10 15 30 15 44 0 14 7 39 16 55 44 81
66 170 68 265 1 101 9 126 41 132 25 4 20 24 -5 21 -13 -2 -31 13 -55 45 -52
70 -64 81 -167 157 -26 19 -49 44 -53 54 -3 11 -18 24 -33 30 -15 6 -38 18
-52 25 -62 35 -110 49 -152 43 -23 -3 -49 -2 -57 3 -22 11 -194 19 -242 10
-39 -7 -135 5 -154 20 -5 4 -31 11 -57 14 -40 6 -47 4 -51 -11 -4 -14 -5 -13
-6 5 -1 16 5 22 19 22 14 0 20 7 20 22 0 30 17 80 58 168 20 41 38 81 42 89 7
15 23 26 53 35 13 4 17 16 17 49 0 27 6 49 15 57 8 7 15 21 15 30 0 29 11 50
27 50 20 0 41 22 35 38 -2 7 16 32 40 56 64 65 111 123 120 145 4 11 16 25 27
31 12 6 21 20 21 32 0 34 65 85 173 137 116 55 184 70 342 75 61 2 135 7 165
10 151 17 312 5 386 -29 43 -20 71 -25 129 -25 40 0 86 -5 102 -12 35 -14 147
-30 233 -32 39 -2 78 -9 99 -20 22 -12 44 -16 65 -12 43 8 130 -17 167 -48 36
-30 54 -32 98 -10 21 10 42 14 59 9 15 -4 38 -8 52 -10 30 -3 96 -31 104 -44
8 -12 229 -5 254 8 57 30 166 40 206 19 90 -48 169 -136 145 -162 -18 -19 -8
-45 28 -77 35 -30 38 -37 41 -97 4 -53 1 -68 -13 -78 -11 -8 -15 -20 -11 -32
4 -11 0 -24 -8 -31 -16 -14 -12 -35 13 -66 24 -30 41 -63 41 -79 0 -14 31 -54
154 -200 26 -31 46 -79 89 -215 59 -186 61 -195 86 -571 5 -74 9 -95 21 -95 8
0 19 16 25 35 17 56 64 140 111 198 24 30 44 57 44 62 0 4 9 10 20 13 14 3 24
-1 31 -15 8 -14 14 -17 23 -8 10 8 15 6 19 -10 7 -27 40 -25 102 8 49 26 50
28 56 82 3 31 13 71 22 90 9 19 21 80 26 135 22 217 57 439 92 576 38 150 53
762 21 864 -8 28 -21 59 -29 70 -7 11 -18 38 -24 59 -6 22 -41 88 -77 148 -37
59 -72 118 -78 130 -6 13 -22 45 -35 71 -13 27 -45 74 -70 106 -25 31 -69 91
-97 133 -29 42 -56 79 -62 83 -5 3 -10 18 -10 33 0 42 -34 85 -138 174 -17 15
-40 45 -51 65 -11 21 -42 53 -68 71 -26 18 -68 47 -92 65 -59 43 -113 73 -147
81 -25 7 -55 27 -116 81 -10 8 -15 21 -12 30 11 27 -27 43 -121 50 -52 4 -105
15 -125 25 -19 9 -48 20 -64 24 -15 4 -41 16 -57 28 -26 20 -37 21 -151 15
-131 -6 -253 8 -284 34 -15 13 -90 22 -259 34 -126 8 -438 12 -515 6z m-5
-141 c3 -5 -1 -10 -10 -10 -9 0 -13 5 -10 10 3 6 8 10 10 10 2 0 7 -4 10 -10z
m62 4 c-3 -3 -12 -4 -19 -1 -8 3 -5 6 6 6 11 1 17 -2 13 -5z m36 -371 c-7 -2
-19 -2 -25 0 -7 3 -2 5 12 5 14 0 19 -2 13 -5z m-43 -22 c0 -5 -9 -11 -20 -14
-11 -3 -20 -1 -20 3 0 5 8 11 18 13 9 3 18 5 20 6 1 0 2 -3 2 -8z m-2205 -971
c3 -6 -1 -13 -10 -16 -19 -8 -30 0 -20 15 8 14 22 14 30 1z m697 -875 c0 -5
-5 -11 -11 -13 -6 -2 -11 4 -11 13 0 9 5 15 11 13 6 -2 11 -8 11 -13z m168
-771 c19 -4 44 -14 55 -24 11 -9 32 -20 48 -24 15 -3 27 -11 27 -16 0 -14 -30
-18 -150 -23 -100 -5 -107 -3 -138 20 -39 29 -42 70 -5 65 12 -2 24 2 28 9 7
11 47 9 135 -7z m218 -161 c40 -25 82 -65 77 -74 -3 -4 -98 -6 -211 -4 -178 3
-209 6 -225 21 -26 24 -24 44 5 44 13 0 29 7 36 15 19 23 280 22 318 -2z
m-265 -236 c17 -43 22 -67 11 -67 -3 0 -19 8 -35 17 -22 13 -29 25 -29 48 0
60 28 61 53 2z m362 -87 c3 -5 1 -10 -6 -10 -7 0 -20 -6 -28 -14 -23 -20 -124
-39 -206 -39 -79 0 -112 5 -141 21 -17 10 -16 12 14 18 17 3 32 11 32 17 0 6
25 8 68 5 37 -2 85 -1 107 2 64 11 153 11 160 0z"/>
<path d="M2307 8663 c-9 -8 -9 -53 -1 -53 12 0 44 43 38 51 -6 11 -28 12 -37
2z"/>
<path d="M2268 7783 c7 -3 16 -2 19 1 4 3 -2 6 -13 5 -11 0 -14 -3 -6 -6z"/>
<path d="M2960 7290 c0 -5 5 -10 10 -10 6 0 10 5 10 10 0 6 -4 10 -10 10 -5 0
-10 -4 -10 -10z"/>
<path d="M5053 6880 c-4 -15 -9 -18 -17 -10 -19 15 -325 10 -356 -6 -14 -7
-47 -20 -73 -30 -26 -9 -53 -24 -60 -33 -21 -28 -78 -63 -93 -57 -8 3 -14 12
-14 21 0 19 -7 19 -26 0 -18 -17 -50 -20 -59 -5 -10 16 -35 -8 -35 -32 0 -11
-9 -22 -20 -25 -11 -3 -20 -12 -20 -21 0 -12 3 -13 12 -4 7 7 21 12 33 12 12
0 26 5 32 11 16 16 49 -5 57 -36 5 -21 11 -25 27 -20 18 6 20 3 19 -27 -3 -54
-1 -58 25 -58 16 0 25 6 25 15 0 9 11 20 25 25 15 6 25 17 25 30 0 11 5 20 11
20 5 0 9 -10 7 -22 -4 -26 22 -35 56 -20 49 22 100 37 309 96 32 9 85 16 117
16 33 0 60 4 60 10 0 6 -7 10 -15 10 -8 0 -15 5 -15 11 0 7 10 9 25 5 18 -5
23 -3 19 8 -3 8 5 21 17 29 l22 16 -29 25 c-16 14 -32 26 -36 26 -3 0 -4 9 -1
20 4 16 0 20 -22 20 -19 0 -28 -6 -32 -20z"/>
<path d="M5238 6753 c6 -2 18 -2 25 0 6 3 1 5 -13 5 -14 0 -19 -2 -12 -5z"/>
<path d="M4256 6731 c-4 -7 -5 -15 -2 -18 9 -9 19 4 14 18 -4 11 -6 11 -12 0z"/>
<path d="M4195 6669 c-11 -16 1 -22 30 -15 14 4 23 11 20 16 -8 13 -42 13 -50
-1z"/>
<path d="M4160 6627 c0 -7 7 -22 15 -33 12 -16 14 -17 15 -2 0 23 -11 48 -21
48 -5 0 -9 -6 -9 -13z"/>
<path d="M4390 6620 c-11 -7 -7 -10 18 -10 20 0 31 4 27 10 -8 13 -26 13 -45
0z"/>
<path d="M4302 6588 c-16 -16 -15 -38 2 -38 17 0 30 30 18 42 -4 4 -13 3 -20
-4z"/>
<path d="M4586 6443 c-15 -8 -36 -23 -45 -32 -9 -9 -33 -29 -53 -44 -33 -26
-36 -31 -27 -60 5 -17 20 -42 33 -55 l23 -24 -23 -25 c-48 -52 -14 -103 60
-89 26 5 43 2 62 -11 20 -13 51 -18 123 -19 53 -2 83 0 66 4 -55 13 -95 41
-95 67 0 24 45 65 72 65 15 0 48 -30 48 -43 0 -4 12 -26 26 -49 l26 -41 98 6
c80 4 108 10 156 33 56 27 59 31 66 73 10 57 17 63 64 59 34 -3 39 -6 42 -30
3 -25 6 -27 35 -21 39 7 53 13 94 38 38 23 42 42 11 55 -39 15 -257 30 -447
30 -156 0 -181 2 -181 15 0 21 -27 30 -44 16 -13 -11 -46 -5 -46 8 0 15 25 31
47 31 13 0 36 6 51 14 15 7 52 17 82 21 46 7 51 10 30 16 -43 12 -133 9 -177
-6 -23 -8 -60 -17 -82 -21 -34 -5 -39 -4 -38 12 2 23 -20 26 -57 7z m40 -50
c-10 -10 -19 5 -10 18 6 11 8 11 12 0 2 -7 1 -15 -2 -18z"/>
<path d="M5313 6443 c15 -2 27 -9 27 -14 0 -12 85 -49 112 -49 20 0 20 1 3 20
-19 21 -109 51 -147 49 -20 -2 -19 -3 5 -6z"/>
<path d="M6899 6105 c-32 -18 -44 -44 -27 -60 7 -7 33 -20 58 -29 108 -42 147
-96 183 -255 14 -63 33 -121 42 -130 14 -15 15 -4 10 129 -7 188 -13 238 -33
279 -15 30 -26 37 -82 54 -90 27 -121 29 -151 12z"/>
<path d="M6461 5914 c0 -11 3 -14 6 -6 3 7 2 16 -1 19 -3 4 -6 -2 -5 -13z"/>
<path d="M6706 5788 c-15 -57 -7 -90 33 -129 61 -61 126 -47 114 25 -3 19 -1
36 6 40 6 4 11 18 11 30 0 20 -8 25 -67 40 -87 21 -89 20 -97 -6z"/>
<path d="M3410 5525 c-19 -41 -37 -75 -42 -75 -4 0 -8 -12 -8 -26 0 -26 1 -26
48 17 44 42 47 47 50 101 1 32 -1 58 -6 58 -5 0 -23 -34 -42 -75z"/>
<path d="M2522 5498 c-11 -77 0 -304 18 -346 6 -13 10 -32 10 -44 0 -22 23
-108 45 -168 13 -34 36 -116 55 -190 30 -121 43 -170 56 -210 8 -25 14 -57 14
-72 0 -15 4 -29 9 -32 5 -3 12 -23 16 -43 7 -39 31 -122 45 -158 4 -11 16 -40
25 -65 58 -147 141 -298 239 -436 28 -38 56 -77 61 -86 6 -9 31 -46 58 -83 26
-36 47 -68 47 -71 0 -12 230 -312 304 -398 43 -49 84 -106 92 -125 9 -20 20
-85 25 -146 5 -60 13 -146 19 -190 5 -44 9 -110 9 -146 1 -77 1 -78 -114 -139
-44 -24 -92 -51 -107 -61 -14 -11 -28 -19 -31 -19 -18 0 -702 -410 -787 -472
-14 -10 -80 -74 -148 -141 -85 -83 -122 -127 -119 -139 3 -11 -2 -18 -17 -20
-11 -2 -25 -13 -31 -25 -5 -13 -16 -23 -24 -23 -21 0 -50 -30 -45 -45 5 -12
-8 -24 -98 -91 -86 -63 -74 -104 40 -143 88 -30 108 -45 122 -94 22 -78 109
-203 153 -220 9 -3 34 0 55 7 22 8 44 11 49 8 38 -23 2 -83 -112 -186 -47 -43
-85 -83 -85 -91 0 -7 -13 -18 -30 -25 -24 -10 -80 -82 -80 -104 0 -3 20 -6 45
-6 24 0 54 -4 67 -9 13 -6 40 -12 60 -16 25 -4 51 -20 82 -50 69 -67 59 -84
-25 -43 -24 12 -64 22 -88 22 -42 1 -45 -1 -68 -44 -28 -54 -48 -70 -84 -70
-15 0 -30 -4 -33 -9 -12 -18 -83 -23 -108 -7 -22 14 -25 13 -73 -37 -28 -29
-62 -67 -77 -85 -31 -38 -74 -42 -150 -15 -43 15 -49 15 -90 0 -33 -13 -49
-26 -61 -52 -9 -20 -17 -38 -17 -40 0 -3 123 -5 273 -5 261 0 273 1 285 20 17
28 90 28 125 0 23 -19 40 -20 245 -20 211 0 220 1 248 22 16 13 34 29 39 36 7
8 25 12 45 10 27 -2 35 -8 36 -23 1 -11 2 -26 3 -32 1 -7 12 -13 25 -13 19 0
26 7 32 33 4 19 9 26 12 17 6 -19 38 -50 52 -50 19 0 10 42 -22 104 -18 33
-35 63 -38 66 -3 3 -23 39 -44 80 -21 41 -49 89 -60 105 -26 36 -46 80 -46
101 0 8 -11 32 -25 53 -13 22 -27 52 -31 68 -4 15 -20 48 -36 73 -15 25 -44
78 -64 119 -20 41 -43 81 -50 89 -8 7 -14 23 -14 35 0 13 -13 31 -30 42 -16
12 -43 38 -59 59 -47 59 -39 85 17 64 34 -13 169 1 267 27 101 27 118 27 160
-1 35 -22 40 -31 43 -67 9 -108 12 -101 -38 -111 -33 -6 -65 -4 -111 6 -102
24 -153 7 -127 -42 40 -77 108 -268 118 -330 6 -41 14 -77 18 -80 5 -3 18 -22
31 -43 33 -54 71 -70 166 -72 76 -2 80 -3 97 -31 39 -64 58 -145 54 -232 l-4
-83 144 3 c143 3 145 3 159 28 24 45 45 93 45 105 0 7 9 32 19 56 16 35 21 40
27 26 4 -10 2 -23 -5 -30 -6 -6 -11 -25 -11 -41 0 -30 2 -29 74 45 46 47 86
101 106 140 39 77 127 171 153 163 9 -3 17 -1 17 5 0 18 51 70 72 73 14 2 25
13 29 28 4 14 7 19 8 13 3 -32 71 3 71 35 0 7 4 12 9 12 4 0 24 10 43 23 62
42 90 48 174 31 42 -8 80 -16 84 -19 11 -7 62 49 105 114 37 56 49 71 88 113
15 16 27 36 27 44 0 8 9 14 20 14 13 0 20 -7 20 -20 0 -13 7 -20 20 -20 30 0
26 43 -5 64 l-24 16 24 26 c14 15 25 31 25 35 0 5 11 16 26 25 19 13 28 14 37
5 6 -6 18 -11 27 -11 13 0 17 -11 18 -55 2 -62 -11 -78 -30 -38 -7 15 -20 29
-29 31 -13 2 -18 -9 -24 -53 -5 -41 -13 -62 -32 -80 l-26 -24 26 -6 c33 -9 35
-21 3 -29 -28 -7 -40 -40 -20 -57 11 -9 14 -8 14 4 0 20 14 29 34 21 21 -8 21
-52 -1 -76 -14 -16 -15 -21 -3 -44 11 -19 11 -29 2 -44 -9 -14 -8 -21 3 -30
15 -12 19 -7 29 32 3 16 11 28 16 28 6 0 10 9 10 20 0 10 11 36 25 56 l25 37
0 -35 c0 -20 -6 -41 -14 -47 -8 -6 -16 -24 -19 -39 -49 -262 -54 -297 -50
-359 4 -85 23 -104 142 -152 47 -19 100 -43 120 -55 76 -45 133 -60 240 -64
92 -3 104 -5 108 -23 5 -17 15 -19 110 -19 95 0 103 1 89 16 -27 26 -19 37 22
30 78 -12 201 -18 236 -12 47 9 50 36 4 36 -44 0 -166 26 -211 45 -20 8 -45
15 -56 15 -11 0 -21 6 -24 13 -3 9 -7 9 -18 1 -8 -6 -47 -14 -87 -17 -41 -3
-80 -11 -87 -17 -22 -18 -229 2 -255 24 -8 7 -57 33 -107 57 -60 28 -95 51
-99 64 -4 11 -14 28 -22 38 -29 32 -22 233 12 361 18 68 23 76 32 52 11 -30
-4 -130 -21 -142 -9 -7 -12 -15 -6 -18 5 -4 7 -39 4 -85 -4 -65 -2 -79 11 -84
11 -4 16 -19 16 -47 0 -39 2 -41 58 -69 31 -16 84 -43 117 -60 33 -17 68 -31
77 -31 9 0 19 -4 22 -9 3 -5 53 -12 110 -16 84 -6 109 -4 137 9 32 15 127 16
169 3 8 -3 26 -8 40 -11 64 -13 135 -37 138 -46 2 -6 22 -10 43 -10 22 0 49
-5 60 -10 15 -8 19 -7 19 4 0 8 -6 17 -12 19 -7 3 0 6 16 6 15 1 45 10 65 20
92 49 152 70 227 79 45 5 94 17 110 25 95 52 92 52 272 55 165 3 215 13 134
25 -75 12 -316 7 -357 -8 -47 -17 -99 -20 -90 -5 3 6 20 10 36 10 16 0 41 7
54 16 20 13 59 16 217 17 187 2 261 -7 293 -35 17 -15 40 -8 72 21 25 22 29
31 18 35 -8 3 -15 17 -15 31 0 19 5 25 23 25 12 0 28 -4 36 -9 10 -7 28 -2 56
15 51 29 59 30 43 4 -11 -16 -9 -22 7 -34 27 -21 128 -21 145 -1 7 8 18 15 26
15 7 0 17 6 21 13 11 17 59 47 76 47 8 0 22 9 31 19 10 11 35 22 56 26 21 4
41 13 44 21 3 8 19 14 41 14 36 0 131 39 171 70 27 20 101 42 239 71 69 14 83
23 68 41 -6 7 -14 23 -17 36 -6 18 -4 22 15 22 12 0 31 -8 41 -17 17 -15 20
-15 35 -1 9 10 13 24 9 33 -5 13 -15 16 -49 12 -82 -10 -138 -27 -171 -52 -18
-14 -48 -28 -67 -31 -44 -8 -111 -30 -177 -60 -29 -13 -58 -24 -64 -24 -7 0
-30 -6 -53 -14 -22 -7 -58 -19 -80 -26 -39 -12 -154 -62 -185 -80 -54 -32
-125 -70 -132 -70 -19 0 -5 19 40 57 26 22 58 44 72 48 13 4 58 25 99 46 41
22 84 39 95 39 20 1 51 11 236 79 47 17 94 31 105 31 11 0 33 7 49 15 15 8 35
15 42 15 8 0 32 11 53 24 21 13 57 30 79 37 23 7 42 16 42 20 0 10 61 0 75
-12 5 -5 29 -9 55 -9 25 -1 65 -5 90 -11 25 -6 68 -14 97 -19 59 -9 113 -25
160 -46 17 -8 38 -14 46 -14 18 0 57 -46 57 -66 0 -21 -16 -17 -46 11 -15 14
-34 25 -43 25 -9 0 -25 6 -36 14 -25 16 -88 27 -104 17 -9 -6 -9 -14 1 -37 18
-40 24 -43 100 -43 37 0 76 -4 87 -10 28 -16 52 -14 66 5 10 14 14 15 33 3 12
-8 22 -19 22 -26 0 -7 9 -13 20 -13 13 0 25 -11 33 -27 16 -36 47 -62 74 -63
12 0 29 -7 37 -16 19 -19 76 -37 76 -24 0 5 -12 22 -27 39 -34 35 -91 104
-117 140 -10 14 -44 46 -74 71 -31 25 -69 59 -86 76 -17 17 -49 44 -71 59 -22
16 -56 45 -77 64 -20 20 -55 54 -77 76 -23 22 -41 43 -41 47 0 5 -70 98 -110
145 -5 7 -10 16 -10 21 0 5 -6 15 -14 21 -8 7 -17 27 -20 46 -4 18 -22 56 -41
84 -19 28 -35 54 -35 59 0 18 -61 92 -75 92 -8 0 -15 8 -15 18 0 17 -252 281
-268 282 -4 1 -36 23 -72 51 -36 27 -75 52 -87 55 -13 4 -23 10 -23 15 0 5 -6
9 -13 9 -7 0 -20 9 -30 20 -9 11 -24 20 -32 20 -8 0 -15 4 -15 9 0 4 -33 23
-72 40 -40 18 -89 40 -108 48 -19 9 -43 20 -52 24 -10 5 -22 9 -28 9 -14 0
-59 32 -145 103 -85 71 -114 87 -179 98 -141 23 -206 46 -206 71 0 6 -6 24
-14 41 -8 18 -17 40 -20 51 -6 16 -14 12 -64 -35 -52 -47 -126 -110 -200 -166
-13 -10 -38 -31 -56 -48 -58 -53 -96 -85 -101 -85 -3 0 -16 -11 -29 -25 -13
-14 -28 -25 -35 -25 -6 0 -23 -14 -38 -30 -14 -17 -30 -30 -36 -30 -5 0 -37
-25 -72 -55 -34 -30 -66 -55 -70 -55 -4 0 -19 -10 -34 -22 -15 -13 -40 -32
-56 -43 -15 -11 -42 -31 -59 -45 -39 -31 -58 -43 -121 -74 -27 -14 -86 -45
-130 -68 -44 -24 -105 -54 -135 -68 -30 -13 -62 -29 -70 -36 -8 -7 -26 -14
-40 -17 -21 -4 -20 -4 7 -6 36 -1 53 -18 26 -27 -28 -8 -95 -42 -128 -64 -16
-11 -37 -23 -45 -26 -9 -3 -31 -23 -49 -45 -21 -24 -42 -39 -57 -39 -14 0 -30
-11 -41 -26 -10 -14 -33 -44 -52 -65 -19 -22 -42 -54 -51 -72 -19 -35 -50 -45
-84 -29 -12 6 -50 15 -86 21 -36 6 -80 13 -98 17 -21 4 -38 2 -48 -7 -18 -15
-54 -34 -249 -133 -72 -36 -138 -66 -147 -66 -10 0 -34 -11 -54 -25 -21 -14
-49 -28 -63 -32 -37 -9 -89 -53 -107 -90 -20 -43 -57 -45 -76 -6 -11 24 -19
28 -48 25 -19 -1 -91 -7 -160 -13 -69 -5 -159 -7 -200 -4 -88 7 -210 33 -226
49 -17 17 -64 135 -64 160 0 37 20 45 110 45 47 -1 101 -1 120 -1 45 0 130 37
130 56 0 8 10 18 23 22 12 4 46 22 75 40 29 19 55 34 59 34 3 0 15 8 25 17 17
15 20 15 28 3 13 -21 12 -30 -2 -30 -7 0 -19 -4 -27 -9 -12 -8 -12 -12 -2 -25
16 -19 51 -21 51 -4 0 7 7 2 16 -10 8 -12 21 -22 28 -22 7 0 23 -11 36 -25 13
-14 34 -25 46 -25 14 0 25 -8 29 -20 3 -11 12 -20 19 -20 16 0 66 45 66 60 0
17 28 11 33 -8 3 -9 3 -1 2 18 -1 19 -16 55 -32 80 -60 90 -95 162 -84 173 9
9 75 -18 183 -74 10 -5 24 -9 32 -9 13 0 46 -14 101 -44 12 -7 96 -11 215 -12
107 0 228 -4 269 -8 64 -7 76 -5 95 12 11 10 41 29 66 41 25 13 55 32 66 44
12 12 31 29 44 37 12 8 40 27 61 42 21 16 43 28 48 28 5 0 11 7 15 15 3 8 14
15 24 15 11 0 25 7 32 15 7 8 19 15 26 15 8 0 14 5 14 10 0 20 -41 10 -82 -20
-22 -17 -47 -30 -54 -30 -7 0 -14 -4 -16 -8 -1 -4 -32 -26 -68 -47 -36 -21
-82 -53 -103 -70 -26 -22 -53 -35 -90 -40 -60 -10 -230 -10 -396 -1 -116 6
-152 17 -296 93 -16 8 -48 25 -70 36 -22 12 -48 29 -58 38 -10 9 -42 29 -72
44 -31 15 -58 32 -61 36 -3 5 -12 9 -21 9 -9 0 -31 10 -50 21 -35 22 -31 38 9
39 17 0 208 -86 218 -99 6 -8 37 -26 77 -47 18 -9 37 -22 44 -30 6 -8 18 -14
26 -14 7 0 40 -13 73 -30 33 -16 71 -30 85 -30 14 0 28 -7 31 -15 6 -15 64
-22 63 -7 0 4 -28 20 -62 35 -159 72 -214 106 -336 208 -13 11 -42 30 -65 42
-22 12 -43 24 -46 27 -3 3 -16 11 -30 17 -23 10 -24 11 -6 19 26 10 101 -17
184 -69 37 -23 69 -44 72 -47 20 -22 114 -85 156 -105 17 -7 36 -21 44 -29 7
-9 20 -16 29 -16 9 0 30 -7 46 -16 63 -34 148 -54 224 -54 65 0 84 4 134 30
31 17 83 43 115 60 31 16 65 30 74 30 9 0 19 4 23 9 3 5 18 12 34 16 16 3 35
13 42 21 6 8 20 14 30 14 11 0 19 5 19 10 0 6 5 10 12 10 13 0 141 78 213 130
28 20 66 45 85 56 19 10 71 46 114 79 188 143 212 161 226 175 9 9 34 29 55
45 22 17 44 36 48 42 4 7 14 13 22 13 7 0 15 4 17 8 2 4 50 44 108 87 58 44
114 88 125 98 11 10 36 28 55 40 19 11 37 23 40 27 8 9 111 93 141 115 72 54
171 139 185 160 14 22 14 27 -10 77 -13 29 -34 80 -46 113 -32 90 -60 161 -90
225 -11 24 -59 111 -98 175 -38 65 -101 130 -133 138 -12 3 -23 -1 -29 -13 -5
-10 -27 -28 -47 -41 -84 -51 -208 -133 -211 -141 -2 -4 -8 -8 -14 -8 -5 0 -67
-38 -137 -84 -337 -222 -470 -305 -576 -356 -40 -20 -55 -21 -125 -15 -58 5
-85 4 -95 -5 -22 -19 -20 7 5 48 11 18 20 40 20 50 0 10 4 22 8 28 5 5 16 30
26 56 10 28 34 62 58 83 34 32 39 41 34 66 -5 25 2 39 41 87 25 31 60 65 77
75 41 25 57 47 50 69 -3 11 0 18 7 18 7 0 19 7 28 15 9 9 108 77 221 151 256
170 273 183 300 241 12 25 33 55 46 65 21 17 34 58 18 58 -10 0 -49 -23 -55
-32 -3 -5 -21 -11 -40 -12 -51 -4 -51 -4 -39 -25 8 -16 6 -21 -13 -27 -12 -4
-34 -7 -48 -5 -30 3 -103 -32 -137 -65 -13 -13 -43 -32 -66 -43 -23 -12 -57
-37 -76 -56 -19 -19 -39 -35 -46 -35 -6 0 -23 -9 -37 -20 -14 -11 -34 -20 -46
-20 -11 0 -49 -16 -84 -35 -35 -19 -72 -35 -82 -35 -9 0 -33 -13 -52 -30 -18
-16 -42 -30 -52 -30 -10 0 -24 -6 -30 -13 -6 -8 -39 -22 -73 -32 -35 -11 -73
-28 -85 -39 -12 -12 -31 -29 -41 -39 -43 -40 -87 -67 -108 -67 -13 0 -29 -9
-37 -20 -12 -17 -21 -20 -55 -14 -34 5 -42 3 -53 -14 -7 -11 -18 -18 -25 -15
-8 3 -27 -5 -44 -17 -23 -17 -34 -20 -43 -11 -16 16 -37 14 -59 -6 -27 -24
-169 -24 -196 0 -10 9 -30 17 -45 17 -14 0 -29 5 -32 10 -3 6 -21 10 -38 10
-39 0 -87 41 -87 74 0 12 -9 32 -21 44 -18 20 -28 22 -94 19 -79 -4 -102 -15
-107 -50 -2 -14 -11 -23 -25 -25 -20 -3 -23 1 -23 32 0 20 -4 36 -10 36 -5 0
-10 -5 -10 -11 0 -7 -8 -18 -17 -25 -17 -12 -17 -14 2 -28 15 -11 17 -18 9
-26 -19 -20 -52 -1 -71 39 -10 21 -33 48 -50 60 -18 12 -33 28 -33 36 0 8 -11
22 -25 31 -14 9 -25 25 -25 35 0 10 -8 24 -18 31 -10 7 -31 40 -45 72 -21 45
-26 68 -21 95 10 55 20 68 58 75 20 4 39 13 44 22 13 23 111 34 260 29 74 -2
154 0 177 4 24 4 50 4 58 0 9 -6 19 -3 27 6 7 8 19 15 28 15 8 0 33 5 55 12
29 9 42 19 49 41 8 21 16 27 29 24 11 -3 24 4 34 19 33 50 18 56 -150 55 -71
0 -157 4 -190 9 -33 6 -88 14 -123 19 -79 12 -159 52 -192 96 -14 19 -31 35
-37 35 -13 0 -17 22 -13 67 1 12 -3 31 -9 41 -8 14 -6 30 5 59 15 37 19 40 74
51 40 9 128 11 277 8 164 -4 233 -1 278 9 226 52 291 55 395 19 112 -39 260
-23 296 31 13 20 19 22 39 13 13 -6 31 -8 39 -5 25 10 20 80 -9 135 -14 26
-25 52 -25 59 0 6 -9 15 -21 18 -11 4 -24 18 -30 32 -7 20 -15 24 -35 20 -20
-3 -31 3 -52 29 -15 19 -35 34 -44 34 -9 0 -20 9 -23 20 -6 18 -30 26 -59 21
-5 -1 -16 5 -26 14 -10 9 -30 17 -46 18 -26 2 -28 -1 -29 -37 -2 -33 6 -48 53
-107 35 -44 62 -69 72 -67 23 4 50 -20 43 -38 -4 -10 0 -12 11 -8 19 7 45 -21
46 -47 0 -26 -28 -31 -41 -7 -9 16 -17 19 -45 15 -39 -7 -152 20 -227 52 -27
12 -57 21 -68 21 -24 0 -36 -27 -22 -49 16 -26 4 -41 -33 -41 -20 0 -43 -4
-52 -9 -11 -6 -37 -5 -67 1 -73 14 -115 19 -159 19 -22 -1 -44 3 -50 7 -6 5
-31 15 -56 22 -49 15 -80 36 -80 55 0 7 -17 17 -37 23 -93 26 -203 80 -203
100 0 4 20 15 44 25 40 16 52 17 118 6 106 -18 193 -14 228 11 35 25 85 36 94
21 8 -13 55 -14 75 -2 28 18 4 38 -53 44 -44 4 -63 12 -85 34 -68 67 -134 100
-162 82 -8 -5 -22 -9 -31 -9 -25 0 -23 42 2 58 15 9 20 23 20 57 0 60 17 93
51 100 29 7 86 -1 104 -14 6 -4 37 -13 70 -20 33 -7 76 -16 95 -21 19 -5 56
-12 81 -15 43 -6 47 -5 73 26 l28 33 -23 10 c-13 5 -51 22 -84 37 -33 16 -96
35 -140 44 -74 15 -82 15 -125 -1 -25 -10 -57 -26 -73 -38 -24 -17 -31 -18
-60 -8 -19 7 -42 12 -53 12 -11 0 -28 6 -39 13 -11 7 -52 26 -91 41 -65 26
-113 62 -161 123 -13 16 -31 23 -63 25 -44 3 -45 2 -48 -27 -7 -80 -12 -93
-43 -104 -38 -13 -54 -6 -69 30 -15 36 -29 37 -60 4 -13 -14 -29 -25 -36 -25
-13 0 -24 -22 -24 -47 0 -8 -11 -28 -25 -45 -14 -16 -25 -38 -25 -47 0 -26 38
-71 54 -65 26 10 32 -21 22 -115 -3 -30 -9 -57 -14 -60 -5 -3 -11 -14 -15 -24
-4 -10 -12 -15 -17 -12 -6 4 -22 0 -35 -9 -13 -9 -36 -16 -50 -16 -24 0 -25 2
-19 43 4 23 10 46 15 52 5 5 9 21 9 36 0 15 4 30 9 33 5 3 7 15 4 25 -10 40
-67 -7 -57 -48 5 -23 -6 -37 -49 -62 -17 -10 -18 -7 -12 45 9 66 -8 81 -51 47
-31 -24 -46 -19 -92 34 -17 19 -36 35 -41 35 -5 0 -16 10 -24 23 -8 12 -29 37
-46 55 -17 18 -31 41 -31 51 0 10 -11 39 -25 64 -20 34 -30 44 -45 40 -15 -4
-21 1 -26 23 -3 16 -10 44 -14 62 -5 18 -5 46 0 63 8 26 7 29 -9 24 -16 -5
-17 -1 -11 41 6 41 5 47 -12 52 -15 4 -18 10 -13 29 7 31 -2 63 -19 63 -8 0
-17 -27 -24 -72z m1328 -2318 c0 -5 -4 -10 -9 -10 -6 0 -13 5 -16 10 -3 6 1
10 9 10 9 0 16 -4 16 -10z m2132 -93 c-11 -25 -22 -37 -34 -35 -9 2 -44 -21
-77 -49 -33 -29 -67 -53 -76 -53 -9 0 -21 -13 -26 -30 -13 -35 -22 -37 -50
-11 -20 19 -11 40 11 26 6 -4 20 5 31 19 12 15 34 33 49 41 16 8 31 23 35 34
3 10 30 31 60 47 30 15 55 31 55 35 0 6 30 18 37 14 1 -1 -5 -18 -15 -38z
m-2242 12 c0 -5 -10 -9 -21 -9 -18 0 -19 2 -9 15 12 15 30 12 30 -6z m2263
-188 c-8 -29 -41 -57 -54 -44 -7 7 -2 20 16 42 28 33 46 34 38 2z m-943 -22
c0 -5 -4 -9 -10 -9 -5 0 -10 7 -10 16 0 8 5 12 10 9 6 -3 10 -10 10 -16z m571
-60 c-6 -24 -9 -28 -10 -12 -1 24 9 56 16 50 2 -3 0 -20 -6 -38z m362 -16 c-7
-2 -21 -2 -30 0 -10 3 -4 5 12 5 17 0 24 -2 18 -5z m-453 -102 c0 -5 -6 -14
-14 -20 -10 -8 -16 -8 -25 3 -9 11 -9 15 1 19 21 9 38 8 38 -2z m265 -121 c-3
-5 -11 -10 -16 -10 -6 0 -7 5 -4 10 3 6 11 10 16 10 6 0 7 -4 4 -10z m-195
-45 c0 -8 -4 -15 -10 -15 -5 0 -10 7 -10 15 0 8 5 15 10 15 6 0 10 -7 10 -15z
m99 -19 c-13 -6 -24 -5 -31 2 -9 9 -5 14 13 20 31 12 48 -9 18 -22z m178 -1
c3 -9 3 -18 0 -21 -6 -7 -47 18 -47 28 0 15 41 8 47 -7z m-271 -60 c-8 -8 -18
-15 -22 -15 -3 0 -1 7 6 15 7 8 17 15 22 15 5 0 3 -7 -6 -15z m-379 -52 c-3
-10 -5 -4 -5 12 0 17 2 24 5 18 2 -7 2 -21 0 -30z m759 -190 c-10 -10 -19 5
-10 18 6 11 8 11 12 0 2 -7 1 -15 -2 -18z m-441 -102 c7 -12 -12 -24 -25 -16
-11 7 -4 25 10 25 5 0 11 -4 15 -9z m1535 -81 c0 -5 -4 -10 -10 -10 -5 0 -10
5 -10 10 0 6 5 10 10 10 6 0 10 -4 10 -10z m-1370 -24 c0 -18 -17 -29 -30 -21
-8 5 -7 11 1 21 15 18 29 18 29 0z m-712 -25 c-16 -26 -51 -29 -46 -4 2 9 14
20 28 23 32 9 34 6 18 -19z m517 -11 c3 -5 -1 -10 -10 -10 -9 0 -13 5 -10 10
3 6 8 10 10 10 2 0 7 -4 10 -10z m51 -87 c-11 -11 -17 4 -9 23 7 18 8 18 11 1
2 -10 1 -21 -2 -24z m-126 1 c0 -9 10 -14 28 -14 15 0 38 -3 51 -7 23 -6 23
-6 -5 -18 -24 -10 -34 -9 -62 7 -18 10 -39 18 -47 18 -25 0 -27 20 -3 29 27
10 38 6 38 -15z m-1069 -7 c-13 -13 -26 -3 -16 12 3 6 11 8 17 5 6 -4 6 -10
-1 -17z m519 -1 c0 -18 -8 -27 -31 -35 -18 -6 -33 -11 -34 -11 -2 0 -6 12 -9
27 -8 30 5 43 47 43 22 0 27 -4 27 -24z m54 -15 c7 -11 -22 -23 -35 -15 -5 3
-9 9 -9 15 0 12 37 12 44 0z m941 -87 c-16 -30 -116 -104 -140 -104 -4 0 -33
-17 -65 -38 -67 -45 -154 -75 -207 -70 -38 3 -49 20 -16 26 10 2 32 10 50 18
17 8 38 14 48 14 19 0 69 25 110 55 17 13 41 26 55 30 14 4 47 24 75 44 109
79 121 83 90 25z m-985 26 c0 -5 -6 -10 -14 -10 -8 0 -18 5 -21 10 -3 6 3 10
14 10 12 0 21 -4 21 -10z m-283 -52 c-3 -8 -6 -5 -6 6 -1 11 2 17 5 13 3 -3 4
-12 1 -19z m173 10 c-1 -18 -25 -48 -38 -48 -6 0 -28 -20 -50 -45 -22 -25 -46
-45 -54 -45 -8 0 -24 -13 -36 -30 -27 -36 -42 -38 -42 -5 0 13 -7 28 -16 33
-10 6 -14 20 -12 43 4 42 27 49 64 20 33 -26 44 -26 44 -1 0 11 -4 20 -10 20
-5 0 -10 7 -10 15 0 17 16 20 25 5 8 -13 55 -13 55 -1 0 5 -6 11 -12 14 -7 2
-10 8 -5 12 4 5 12 4 18 -2 8 -8 16 -6 30 8 22 22 49 25 49 7z m2050 -23 c-14
-17 -5 -51 15 -59 8 -3 15 -14 15 -24 0 -10 5 -23 11 -29 6 -6 8 -21 4 -34
l-8 -23 -18 23 c-11 13 -19 38 -19 57 0 19 -4 34 -9 34 -5 0 -13 9 -16 20 -7
21 9 50 27 50 6 0 5 -6 -2 -15z m-2452 -27 c-9 -7 -18 -20 -21 -28 -3 -8 -6
-3 -6 13 -1 21 3 27 21 27 19 0 20 -2 6 -12z m2656 -50 c-13 -21 -34 -6 -34
25 l0 32 19 -25 c11 -13 17 -28 15 -32z m-2591 -8 c7 -26 -3 -31 -39 -20 -16
4 -23 9 -16 9 6 1 12 8 12 16 0 22 37 18 43 -5z m3374 -62 c-3 -8 -6 -5 -6 6
-1 11 2 17 5 13 3 -3 4 -12 1 -19z m-3957 -67 c0 -9 -94 -41 -119 -41 -15 0
-14 37 2 43 22 9 117 7 117 -2z m10 -201 c-19 -13 -30 -13 -30 0 0 6 10 10 23
10 18 0 19 -2 7 -10z m-480 -43 c0 -31 -4 -34 -40 -29 -38 5 -39 27 -2 40 40
15 42 14 42 -11z m-696 4 c10 -15 -18 -30 -72 -41 -53 -10 -102 -35 -102 -51
0 -5 -26 -9 -57 -9 -32 1 -67 0 -77 -2 -29 -5 -30 17 -1 32 19 10 33 11 58 3
37 -11 71 1 111 39 12 11 30 24 41 28 27 12 92 12 99 1z m5211 -11 c3 -5 1
-10 -4 -10 -6 0 -11 5 -11 10 0 6 2 10 4 10 3 0 8 -4 11 -10z m-2908 -132 c-3
-8 -6 -5 -6 6 -1 11 2 17 5 13 3 -3 4 -12 1 -19z m-177 -6 c0 -13 -12 -22 -22
-16 -10 6 -1 24 13 24 5 0 9 -4 9 -8z m40 -32 c0 -5 -2 -10 -4 -10 -3 0 -8 5
-11 10 -3 6 -1 10 4 10 6 0 11 -4 11 -10z m167 -152 c-3 -8 -6 -5 -6 6 -1 11
2 17 5 13 3 -3 4 -12 1 -19z m-82 -7 c3 -5 1 -12 -5 -16 -5 -3 -10 1 -10 9 0
18 6 21 15 7z m-165 -46 c0 -14 -4 -25 -9 -25 -5 0 -11 11 -13 25 -4 17 -1 25
8 25 8 0 14 -11 14 -25z m140 -24 c0 -6 -4 -13 -10 -16 -5 -3 -10 1 -10 9 0 9
5 16 10 16 6 0 10 -4 10 -9z m47 -33 c-3 -8 -6 -5 -6 6 -1 11 2 17 5 13 3 -3
4 -12 1 -19z m-80 -40 c-3 -7 -5 -2 -5 12 0 14 2 19 5 13 2 -7 2 -19 0 -25z
m67 -13 c-4 -8 -10 -15 -15 -15 -5 0 -9 7 -9 15 0 8 7 15 15 15 9 0 12 -6 9
-15z m-17 -47 c-3 -8 -6 -5 -6 6 -1 11 2 17 5 13 3 -3 4 -12 1 -19z m-1607
-108 c0 -26 -3 -31 -10 -20 -5 8 -10 31 -10 50 0 26 3 31 10 20 5 -8 10 -31
10 -50z m30 -82 c0 -5 -4 -8 -10 -8 -5 0 -10 10 -10 23 0 18 2 19 10 7 5 -8
10 -18 10 -22z m17 -40 c-3 -8 -6 -5 -6 6 -1 11 2 17 5 13 3 -3 4 -12 1 -19z
m3499 -80 c3 -4 18 -8 34 -8 33 0 46 -13 27 -29 -9 -7 -32 -8 -73 -1 -32 5
-72 10 -89 11 -66 2 -321 -14 -335 -21 -15 -8 -65 -13 -110 -11 -20 1 -22 3
-10 11 8 6 34 9 58 8 24 -1 46 3 50 9 4 7 50 15 108 18 56 4 117 11 135 15 42
10 199 8 205 -2z m-3439 -30 c-3 -7 -5 -2 -5 12 0 14 2 19 5 13 2 -7 2 -19 0
-25z m33 -46 c0 -7 -4 -10 -10 -7 -5 3 -10 16 -10 28 0 18 2 19 10 7 5 -8 10
-21 10 -28z m2790 -2 c0 -5 -12 -10 -27 -10 -22 0 -25 2 -13 10 20 13 40 13
40 0z m-2722 -63 c23 -18 28 -27 17 -27 -20 0 -75 53 -75 72 1 10 4 9 13 -2 7
-8 27 -27 45 -43z m2692 -28 c-25 -5 -54 -14 -66 -20 -11 -6 -34 -9 -50 -7
l-29 4 30 8 c17 4 37 11 45 16 8 5 38 9 65 8 l50 0 -45 -9z m-700 -219 c10 -7
-6 -10 -55 -9 -48 0 -64 3 -50 9 27 12 87 12 105 0z"/>
<path d="M6483 4906 c-34 -28 -88 -138 -80 -160 3 -8 18 -18 33 -22 22 -6 31
-2 43 15 58 82 93 119 121 131 l32 13 -29 23 c-37 31 -84 31 -120 0z"/>
<path d="M4271 4836 c-7 -9 -9 -29 -5 -55 4 -27 2 -46 -6 -56 -11 -13 -10 -18
6 -29 38 -28 78 30 55 80 -6 14 -9 30 -5 35 6 10 -13 39 -26 39 -4 0 -13 -6
-19 -14z"/>
<path d="M4386 4769 c-3 -17 -6 -35 -6 -40 0 -15 27 -10 40 6 11 13 11 20 0
40 -18 33 -26 31 -34 -6z"/>
<path d="M6010 3904 c0 -8 5 -12 10 -9 6 3 10 10 10 16 0 5 -4 9 -10 9 -5 0
-10 -7 -10 -16z"/>
<path d="M6628 2613 c-42 -46 -157 -148 -247 -219 -184 -147 -232 -184 -241
-184 -5 0 -13 -6 -17 -13 -4 -7 -44 -41 -88 -75 -44 -35 -93 -76 -110 -91 -16
-16 -46 -39 -65 -52 -20 -13 -42 -30 -50 -37 -33 -28 -202 -151 -234 -169 -30
-18 -57 -36 -72 -50 -7 -7 -19 -13 -28 -13 -8 0 -18 -4 -21 -10 -20 -33 124
27 210 86 11 8 27 14 37 14 10 0 18 4 18 8 0 5 20 18 44 30 24 12 50 29 57 38
7 9 36 31 64 49 27 17 59 42 69 54 11 11 23 21 27 21 9 0 32 18 100 78 20 17
42 32 48 32 6 0 11 3 11 8 0 4 17 18 38 32 20 14 42 29 48 35 6 5 30 26 54 45
25 19 60 49 80 65 19 17 64 53 100 80 36 27 67 52 70 55 3 3 34 28 70 55 36
28 73 56 83 65 22 19 22 62 -1 83 -18 16 -21 15 -54 -20z"/>
<path d="M4960 1445 c-7 -8 -19 -15 -26 -15 -8 0 -14 -7 -14 -16 0 -11 6 -14
21 -9 24 8 59 36 59 47 0 14 -27 9 -40 -7z"/>
<path d="M3890 1175 c0 -8 5 -15 10 -15 6 0 10 7 10 15 0 8 -4 15 -10 15 -5 0
-10 -7 -10 -15z"/>
<path d="M4000 915 c0 -9 5 -15 11 -13 6 2 11 8 11 13 0 5 -5 11 -11 13 -6 2
-11 -4 -11 -13z"/>
<path d="M4658 903 c-24 -6 -23 -30 3 -44 25 -13 43 0 37 27 -3 19 -14 24 -40
17z"/>
<path d="M8248 812 c-44 -4 -48 -13 -13 -32 21 -11 29 -11 50 0 22 12 27 11
38 -3 8 -11 21 -14 41 -10 l28 6 -33 14 c-58 25 -73 28 -111 25z"/>
<path d="M8288 723 c7 -3 16 -2 19 1 4 3 -2 6 -13 5 -11 0 -14 -3 -6 -6z"/>
<path d="M8358 723 c6 -2 18 -2 25 0 6 3 1 5 -13 5 -14 0 -19 -2 -12 -5z"/>
<path d="M9005 450 c17 -17 31 -26 33 -20 5 15 -27 50 -46 50 -11 0 -7 -9 13
-30z"/>
<path d="M7056 347 c-40 -24 -56 -44 -50 -60 8 -23 109 -24 118 -2 3 8 12 15
21 15 23 0 18 29 -7 39 -48 18 -64 19 -82 8z"/>
<path d="M4732 253 c-2 -68 1 -86 16 -100 22 -23 121 -56 152 -51 19 2 10 10
-46 37 -99 49 -112 65 -117 137 -3 51 -3 49 -5 -23z"/>
<path d="M6820 280 c0 -5 10 -10 23 -10 18 0 19 2 7 10 -19 13 -30 13 -30 0z"/>
<path d="M8105 250 c-264 -17 -290 -26 -274 -98 5 -20 11 -63 15 -94 l5 -58
395 0 394 0 -1 23 c0 12 -6 56 -12 97 l-12 74 -45 17 c-64 24 -223 49 -294 47
-34 0 -110 -4 -171 -8z"/>
<path d="M6934 235 c-12 -29 47 -72 81 -59 21 8 19 30 -5 54 -24 24 -68 26
-76 5z"/>
<path d="M3770 145 c-123 -17 -133 -25 -160 -117 l-9 -28 237 0 237 0 18 39
c31 63 23 73 -73 98 -96 25 -130 26 -250 8z"/>
<path d="M4530 20 c-10 -19 -8 -20 52 -20 l63 1 -35 19 c-45 25 -67 25 -80 0z"/>
<path d="M5333 3 c9 -2 23 -2 30 0 6 3 -1 5 -18 5 -16 0 -22 -2 -12 -5z"/>
<path d="M5702 3 c37 -2 100 -2 140 0 40 1 10 3 -67 3 -77 0 -110 -1 -73 -3z"/>
</g>
</svg>
